<?xml version="1.0" encoding="UTF-8"?>
<svg id="Layer_1" data-name="Layer 1" xmlns="http://www.w3.org/2000/svg" viewBox="0 0 20.03 15.15">
  <defs>
    <style>
      .cls-1 {
        fill: #2220c1;
        stroke-width: 0px;
      }
    </style>
  </defs>
  <path class="cls-1" d="M19.04,15.15H.36v-2.31h-.36v-4.76c0-.93.68-1.76,1.59-1.93V0h16.84v6.13c.92.2,1.59,1.01,1.59,1.93v4.79h-.36v2.28l-.63.03ZM1.36,14.15l17.3-.03v-1.41H1.36v1.44ZM17.43,6.85H2.59M1.81,7.13c-.47.08-.81.5-.81.95v3.63h18.03v-3.65c0-.45-.34-.85-.81-.95M15.63,5.85h1.8V1H2.59v4.85h1.32s0-.06,0-.09v-1.76c0-.6.52-1.09,1.15-1.09h4.06c.24,0,.47.07.65.19.19-.12.41-.19.65-.19h4.06c.64,0,1.15.49,1.15,1.09v1.76s0,.06,0,.09ZM10.42,5.85h4.06c.1,0,.15-.06.15-.09v-1.76s-.05-.09-.15-.09h-4.06c-.1,0-.15.06-.15.09v1.76s.05.09.15.09ZM5.06,5.85h4.06c.1,0,.15-.06.15-.09v-1.76s-.06-.09-.15-.09h-4.06c-.1,0-.15.06-.15.09v1.76s.05.09.15.09Z"/>
</svg>