<?xml version="1.0" encoding="UTF-8"?>
<svg id="Layer_1" data-name="Layer 1" xmlns="http://www.w3.org/2000/svg" viewBox="0 0 17.21 18.07">
  <defs>
    <style>
      .cls-1 {
        fill: #FFFFFF;
        stroke-width: 0px;
      }
    </style>
  </defs>
  <path class="cls-1" d="M9,18.07C4.04,18.07,0,14.02,0,9.04S4.04,0,9,0h1.25l-.91.86c-1.46,1.39-2.3,3.32-2.3,5.31,0,4.57,4.21,8.16,8.95,7.03l1.21-.29-.68,1.05c-1.67,2.58-4.48,4.11-7.53,4.11ZM7.79,1.09C3.95,1.68,1,5.02,1,9.04c0,4.43,3.59,8.04,8,8.04,2.3,0,4.46-.99,5.96-2.69-4.85.42-8.92-3.43-8.92-8.21,0-1.83.63-3.63,1.75-5.08Z"/>
</svg>