<?xml version="1.0" encoding="UTF-8"?>
<svg xmlns="http://www.w3.org/2000/svg" viewBox="0 0 48.99 48.99">
  <defs>
    <style>
      .cls-1 {
        fill: #2220c1;
      }

      .cls-1, .cls-2 {
        stroke-width: 0px;
      }

      .cls-2 {
        fill: #fff;
      }
    </style>
  </defs>
  <g id="Bg_blue" data-name="Bg blue">
    <rect class="cls-1" x="9.44" y="9.44" width="30.11" height="30.11" rx="2" ry="2" transform="translate(-10.15 24.49) rotate(-45)"/>
  </g>
  <g id="Border">
    <path class="cls-1" d="M18,7.46l-1.06-1.06L22.55.79c1.04-1.04,2.85-1.04,3.89,0l5.61,5.61-1.06,1.06-5.61-5.61c-.47-.47-1.29-.47-1.77,0l-5.61,5.61Z"/>
    <path class="cls-1" d="M24.49,48.97c-.73,0-1.42-.29-1.94-.81l-5.61-5.61,1.06-1.06,5.61,5.61c.47.47,1.29.47,1.77,0l5.61-5.61,1.06,1.06-5.61,5.61c-.52.52-1.21.81-1.94.81Z"/>
    <path class="cls-1" d="M32.92,41.68l-1.06-1.06,15.26-15.26c.49-.49.49-1.28,0-1.77l-15.26-15.26,1.06-1.06,15.26,15.26c1.07,1.07,1.07,2.82,0,3.89l-15.26,15.26Z"/>
    <path class="cls-1" d="M16.06,41.68L.8,26.42c-1.07-1.07-1.07-2.82,0-3.89l15.26-15.26,1.06,1.06L1.86,23.6c-.49.49-.49,1.28,0,1.77l15.26,15.26-1.06,1.06Z"/>
  </g>
  <g id="Accommodation">
    <path class="cls-2" d="M33.52,32.07H14.84v-2.31h-.36v-4.76c0-.93.68-1.76,1.59-1.93v-6.16h16.84v6.13c.92.2,1.59,1.01,1.59,1.93v4.79h-.36v2.28l-.63.03ZM15.84,31.07l17.3-.03v-1.41H15.84v1.44ZM31.91,23.77h-14.84M16.29,24.05c-.47.08-.81.5-.81.95v3.63h18.03v-3.65c0-.45-.34-.85-.81-.95M30.11,22.77h1.8v-4.85h-14.84v4.85h1.32s0-.06,0-.09v-1.76c0-.6.52-1.09,1.15-1.09h4.06c.24,0,.47.07.65.19.19-.12.41-.19.65-.19h4.06c.64,0,1.15.49,1.15,1.09v1.76s0,.06,0,.09ZM24.9,22.77h4.06c.1,0,.15-.06.15-.09v-1.76s-.05-.09-.15-.09h-4.06c-.1,0-.15.06-.15.09v1.76s.05.09.15.09ZM19.54,22.77h4.06c.1,0,.15-.06.15-.09v-1.76s-.06-.09-.15-.09h-4.06c-.1,0-.15.06-.15.09v1.76s.05.09.15.09Z"/>
  </g>
</svg>