<svg xmlns="http://www.w3.org/2000/svg" fill="#000000" id="Layer_1" data-name="Layer 1" viewBox="0 0 12 17.35"><defs><style>.cls-1{stroke-width:0}</style></defs><path d="M6 9C4.35 9 3 7.65 3 6s1.35-3 3-3 3 1.35 3 3-1.35 3-3 3Zm0-5c-1.1 0-2 .9-2 2s.9 2 2 2 2-.9 2-2-.92-2-2-2Z" class="cls-1"/><path d="m6.02 17.35-.41-.55C5.38 16.5.01 9.39.01 6.17 0 2.77 2.69 0 6 0s6 2.77 6 6.17c.03 2.51-5.02 9.79-5.59 10.62l-.39.56ZM6 1C3.24 1 1 3.32 1 6.17c0 2.2 3.28 7.14 4.98 9.47 1.7-2.5 5.03-7.75 5.02-9.47C11 3.31 8.76.99 6 .99Z" class="cls-1"/></svg>