<svg xmlns="http://www.w3.org/2000/svg" fill="currentColor" data-name="Layer 1" viewBox="0 0 15 15"><path d="M14.5.5h.5V0h-.5v.5Zm0 14v.5h.5v-.5h-.5ZM.5.5V0H0v.5h.5Zm0 14H0v.5h.5v-.5ZM11 1h3.5V0H11v1Zm3-.5V4h1V.5h-1ZM11 15h3.5v-1H11v1Zm4-.5V11h-1v3.5h1ZM1 4V.5H0V4h1ZM.5 1H4V0H.5v1ZM0 11v3.5h1V11H0Zm.5 4H4v-1H.5v1ZM9 5.5C9 6.33 8.33 7 7.5 7v1A2.5 2.5 0 0 0 10 5.5H9ZM7.5 7C6.67 7 6 6.33 6 5.5H5A2.5 2.5 0 0 0 7.5 8V7ZM6 5.5C6 4.67 6.67 4 7.5 4V3A2.5 2.5 0 0 0 5 5.5h1ZM7.5 4C8.33 4 9 4.67 9 5.5h1A2.5 2.5 0 0 0 7.5 3v1ZM4 11.5c0-.26.22-.63.9-.97.64-.32 1.56-.53 2.6-.53V9c-1.16 0-2.24.24-3.05.64C3.67 10.03 3 10.66 3 11.5h1ZM7.5 10c1.04 0 1.96.21 2.6.53.67.34.9.71.9.97h1c0-.84-.67-1.47-1.45-1.86C9.74 9.24 8.66 9 7.5 9v1Z" style="stroke-width:0"/></svg>