<?xml version="1.0" encoding="UTF-8"?>
<svg xmlns="http://www.w3.org/2000/svg" viewBox="0 0 48.99 48.99">
  <defs>
    <style>
      .cls-1 {
        fill: #2220c1;
      }

      .cls-1, .cls-2 {
        stroke-width: 0px;
      }

      .cls-2 {
        fill: #fff;
      }
    </style>
  </defs>
  <g id="Bg_white" data-name="Bg white">
    <rect class="cls-2" x="9.44" y="9.44" width="30.11" height="30.11" rx="2" ry="2" transform="translate(-10.15 24.49) rotate(-45)"/>
  </g>
  <g id="Border">
    <path class="cls-2" d="M18,7.46l-1.06-1.06L22.55.79c1.04-1.04,2.85-1.04,3.89,0l5.61,5.61-1.06,1.06-5.61-5.61c-.47-.47-1.29-.47-1.77,0l-5.61,5.61Z"/>
    <path class="cls-2" d="M24.49,48.97c-.73,0-1.42-.29-1.94-.81l-5.61-5.61,1.06-1.06,5.61,5.61c.47.47,1.29.47,1.77,0l5.61-5.61,1.06,1.06-5.61,5.61c-.52.52-1.21.81-1.94.81Z"/>
    <path class="cls-2" d="M32.92,41.68l-1.06-1.06,15.26-15.26c.49-.49.49-1.28,0-1.77l-15.26-15.26,1.06-1.06,15.26,15.26c1.07,1.07,1.07,2.82,0,3.89l-15.26,15.26Z"/>
    <path class="cls-2" d="M16.06,41.68L.8,26.42c-1.07-1.07-1.07-2.82,0-3.89l15.26-15.26,1.06,1.06L1.86,23.6c-.49.49-.49,1.28,0,1.77l15.26,15.26-1.06,1.06Z"/>
  </g>
  <g id="Food">
    <g>
      <path class="cls-1" d="M29.19,26.21c2.23-.34,3.9-3.21,3.9-6.73,0-1.34-.25-2.63-.71-3.75l-.11-.26h-7.02l-.11.26c-.47,1.11-.72,2.41-.72,3.75,0,3.53,1.67,6.39,3.91,6.73v6.46h-2.3v.86h5.47v-.86h-2.3v-6.46ZM25.28,19.48c0-1.12.19-2.2.54-3.15h5.86c.36.95.54,2.03.54,3.15,0,3.06-1.4,5.64-3.2,5.89h-.52c-1.81-.22-3.23-2.8-3.23-5.89Z"/>
      <path class="cls-1" d="M21.28,19.5h0l-.05-4.06h-.86s.05,4.08.05,4.08c-.01.39-.3.53-.49.53-.04,0-.21-.25-.21-.79v-3.82h-.86v3.82c0,.46-.2.7-.25.72-.06-.01-.26-.26-.26-.72v-3.82h-.86v3.82c0,.55-.17.79-.21.79-.19,0-.48-.15-.49-.53l.05-4.07h-.86s-.05,4.05-.05,4.05h0s0,.03,0,.05l-.03,2c.02.85.65,1.61,1.59,1.97v8.88c0,.63.5,1.14,1.12,1.14h0c.62,0,1.12-.51,1.12-1.13v-8.88c.94-.36,1.57-1.12,1.59-1.99l-.03-1.99s0-.03,0-.04ZM19.18,22.79l-.32.09v9.53c0,.15-.11.27-.26.27h0c-.14,0-.26-.12-.26-.28v-9.53l-.32-.09c-.75-.2-1.26-.71-1.27-1.25v-.72c.17.07.34.1.52.1.28,0,.52-.12.7-.34.18.17.39.26.63.26s.46-.1.63-.26c.18.22.42.34.7.34.17,0,.34-.04.51-.1v.71c0,.56-.51,1.06-1.26,1.26Z"/>
    </g>
  </g>
</svg>