<?xml version="1.0" encoding="UTF-8"?>
<svg xmlns="http://www.w3.org/2000/svg" viewBox="0 0 48.99 48.99">
  <defs>
    <style>
      .cls-1 {
        fill: #2220c1;
      }

      .cls-1, .cls-2 {
        stroke-width: 0px;
      }

      .cls-2 {
        fill: #fff;
      }
    </style>
  </defs>
  <g id="Bg_white" data-name="Bg white">
    <rect class="cls-2" x="9.44" y="9.44" width="30.11" height="30.11" rx="2" ry="2" transform="translate(-10.15 24.49) rotate(-45)"/>
  </g>
  <g id="Bg_blue" data-name="Bg blue">
    <rect class="cls-1" x="9.44" y="9.44" width="30.11" height="30.11" rx="2" ry="2" transform="translate(-10.15 24.49) rotate(-45)"/>
  </g>
  <g id="Border">
    <path class="cls-1" d="M18,7.46l-1.06-1.06L22.55.79c1.04-1.04,2.85-1.04,3.89,0l5.61,5.61-1.06,1.06-5.61-5.61c-.47-.47-1.29-.47-1.77,0l-5.61,5.61Z"/>
    <path class="cls-1" d="M24.49,48.97c-.73,0-1.42-.29-1.94-.81l-5.61-5.61,1.06-1.06,5.61,5.61c.47.47,1.29.47,1.77,0l5.61-5.61,1.06,1.06-5.61,5.61c-.52.52-1.21.81-1.94.81Z"/>
    <path class="cls-1" d="M32.92,41.68l-1.06-1.06,15.26-15.26c.49-.49.49-1.28,0-1.77l-15.26-15.26,1.06-1.06,15.26,15.26c1.07,1.07,1.07,2.82,0,3.89l-15.26,15.26Z"/>
    <path class="cls-1" d="M16.06,41.68L.8,26.42c-1.07-1.07-1.07-2.82,0-3.89l15.26-15.26,1.06,1.06L1.86,23.6c-.49.49-.49,1.28,0,1.77l15.26,15.26-1.06,1.06Z"/>
  </g>
  <g id="_" data-name="?">
    <path class="cls-2" d="M23.18,27.28c0-.5.04-.93.12-1.29s.22-.67.43-.94.39-.47.55-.6c.16-.13.41-.33.77-.59.37-.26.63-.45.76-.57.14-.11.29-.31.45-.58.16-.28.24-.59.24-.94,0-.54-.18-.97-.53-1.29-.35-.32-.81-.48-1.38-.48-.67,0-1.21.2-1.62.6-.41.4-.62.95-.63,1.65h-2.32c.02-1.25.43-2.28,1.23-3.1.8-.82,1.9-1.22,3.32-1.22s2.41.35,3.2,1.06c.79.71,1.18,1.61,1.18,2.7,0,.42-.05.8-.14,1.13s-.24.63-.44.88c-.2.25-.37.44-.51.58-.14.13-.35.3-.61.5-.12.1-.29.23-.51.39s-.37.27-.45.33c-.08.06-.19.15-.33.28s-.24.23-.28.31-.09.18-.15.31c-.06.13-.1.26-.12.4-.02.14-.03.3-.03.48h-2.2ZM22.96,31.05v-2.61h2.63v2.61h-2.63Z"/>
  </g>
</svg>