<svg xmlns="http://www.w3.org/2000/svg" fill="#2220C1" data-name="Layer 1" viewBox="0 0 17 16.2"><path d="M8.5 16.2h-.09c-.04 0-.08-.02-.12-.04a.218.218 0 0 1-.08-.05c-.02-.02-.04-.03-.06-.05s-.04-.04-.05-.06L.11 5.61s-.04-.05-.05-.08c-.02-.03-.03-.07-.04-.1S0 5.35 0 5.31c0-.05 0-.11.02-.16 0-.03.02-.05.03-.08.01-.02.02-.04.04-.07L3.28.22C3.37.08 3.53 0 3.7 0h9.6c.17 0 .32.08.42.22l3.19 4.79s.03.04.04.07c.01.02.02.05.03.07.02.05.02.11.02.16 0 .04 0 .08-.02.12 0 .03-.02.07-.04.1-.01.03-.03.05-.05.08L8.9 15.99s-.03.04-.05.06c-.02.02-.04.04-.06.05s-.05.03-.07.04c-.04.02-.08.03-.12.04h-.09ZM5.98 5.8 8.5 14l2.52-8.2H5.97Zm6.09 0-2.28 7.4 5.69-7.4h-3.42Zm-10.55 0 5.69 7.4-2.28-7.4H1.52Zm10.49-1h3.56L13.04 1h-2.92l1.9 3.8Zm-5.9 0h4.78L8.99 1h-.98l-1.9 3.8Zm-4.68 0h3.56L6.89 1H3.97L1.44 4.8Z" style="stroke-width:0"/></svg>