<?xml version="1.0" encoding="UTF-8"?>
<svg xmlns="http://www.w3.org/2000/svg" viewBox="0 0 48.99 48.99">
  <defs>
    <style>
      .cls-1 {
        fill: #2220c1;
      }

      .cls-1, .cls-2 {
        stroke-width: 0px;
      }

      .cls-2 {
        fill: #fff;
      }
    </style>
  </defs>
  <g id="Bg_white" data-name="Bg white">
    <rect class="cls-2" x="9.44" y="9.44" width="30.11" height="30.11" rx="2" ry="2" transform="translate(-10.15 24.49) rotate(-45)"/>
  </g>
  <g id="Border">
    <path class="cls-2" d="M18,7.46l-1.06-1.06L22.55.79c1.04-1.04,2.85-1.04,3.89,0l5.61,5.61-1.06,1.06-5.61-5.61c-.47-.47-1.29-.47-1.77,0l-5.61,5.61Z"/>
    <path class="cls-2" d="M24.49,48.97c-.73,0-1.42-.29-1.94-.81l-5.61-5.61,1.06-1.06,5.61,5.61c.47.47,1.29.47,1.77,0l5.61-5.61,1.06,1.06-5.61,5.61c-.52.52-1.21.81-1.94.81Z"/>
    <path class="cls-2" d="M32.92,41.68l-1.06-1.06,15.26-15.26c.49-.49.49-1.28,0-1.77l-15.26-15.26,1.06-1.06,15.26,15.26c1.07,1.07,1.07,2.82,0,3.89l-15.26,15.26Z"/>
    <path class="cls-2" d="M16.06,41.68L.8,26.42c-1.07-1.07-1.07-2.82,0-3.89l15.26-15.26,1.06,1.06L1.86,23.6c-.49.49-.49,1.28,0,1.77l15.26,15.26-1.06,1.06Z"/>
  </g>
  <g id="Nature">
    <path class="cls-1" d="M24.49,34.31c-3.65,0-6.62-4.41-6.62-9.82s2.97-9.82,6.62-9.82,6.62,4.41,6.62,9.82-2.97,9.82-6.62,9.82ZM24.49,15.67c-3.1,0-5.62,3.96-5.62,8.82,0,4.6,2.26,8.39,5.12,8.79v-2.99l-4-4,.71-.71,3.29,3.29v-3.07l-3.23-3.22.71-.71,2.52,2.52v-5.27h1v2.48l2.02-2.02.71.71-2.72,2.72v3.64l2.78-2.78.71.71-3.49,3.49v5.21c2.87-.4,5.12-4.19,5.12-8.79,0-4.86-2.52-8.82-5.62-8.82Z"/>
  </g>
</svg>