<?xml version="1.0" encoding="UTF-8"?>
<svg xmlns="http://www.w3.org/2000/svg" viewBox="0 0 48.99 48.99">
  <defs>
    <style>
      .cls-1 {
        fill: #2220c1;
      }

      .cls-1, .cls-2 {
        stroke-width: 0px;
      }

      .cls-2 {
        fill: #fff;
      }
    </style>
  </defs>
  <g id="Bg_blue" data-name="Bg blue">
    <rect class="cls-1" x="9.44" y="9.44" width="30.11" height="30.11" rx="2" ry="2" transform="translate(-10.15 24.49) rotate(-45)"/>
  </g>
  <g id="Border">
    <path class="cls-1" d="M18,7.46l-1.06-1.06L22.55.79c1.04-1.04,2.85-1.04,3.89,0l5.61,5.61-1.06,1.06-5.61-5.61c-.47-.47-1.29-.47-1.77,0l-5.61,5.61Z"/>
    <path class="cls-1" d="M24.49,48.97c-.73,0-1.42-.29-1.94-.81l-5.61-5.61,1.06-1.06,5.61,5.61c.47.47,1.29.47,1.77,0l5.61-5.61,1.06,1.06-5.61,5.61c-.52.52-1.21.81-1.94.81Z"/>
    <path class="cls-1" d="M32.92,41.68l-1.06-1.06,15.26-15.26c.49-.49.49-1.28,0-1.77l-15.26-15.26,1.06-1.06,15.26,15.26c1.07,1.07,1.07,2.82,0,3.89l-15.26,15.26Z"/>
    <path class="cls-1" d="M16.06,41.68L.8,26.42c-1.07-1.07-1.07-2.82,0-3.89l15.26-15.26,1.06,1.06L1.86,23.6c-.49.49-.49,1.28,0,1.77l15.26,15.26-1.06,1.06Z"/>
  </g>
  <g id="Culture">
    <path class="cls-2" d="M32.99,32.04H15.99v-3h2v-8h-3.24l9.74-6.09,9.74,6.09h-3.24v8h2v3ZM16.99,31.04h15v-1h-15v1ZM28.99,29.04h1v-8h-1v8ZM25.99,29.04h2v-8h-2v8ZM23.99,29.04h1v-8h-1v8ZM20.99,29.04h2v-8h-2v8ZM18.99,29.04h1v-8h-1v8ZM18.24,20.04h12.51l-6.26-3.91-6.26,3.91Z"/>
  </g>
</svg>