<?xml version="1.0" encoding="UTF-8"?>
<svg xmlns="http://www.w3.org/2000/svg" viewBox="0 0 48.99 48.99">
  <defs>
    <style>
      .cls-1 {
        fill: #2220c1;
      }

      .cls-1, .cls-2 {
        stroke-width: 0px;
      }

      .cls-2 {
        fill: #fff;
      }
    </style>
  </defs>
  <g id="Bg_blue" data-name="Bg blue">
    <rect class="cls-1" x="9.44" y="9.44" width="30.11" height="30.11" rx="2" ry="2" transform="translate(-10.15 24.49) rotate(-45)"/>
  </g>
  <g id="Border">
    <path class="cls-1" d="M18,7.46l-1.06-1.06L22.55.79c1.04-1.04,2.85-1.04,3.89,0l5.61,5.61-1.06,1.06-5.61-5.61c-.47-.47-1.29-.47-1.77,0l-5.61,5.61Z"/>
    <path class="cls-1" d="M24.49,48.97c-.73,0-1.42-.29-1.94-.81l-5.61-5.61,1.06-1.06,5.61,5.61c.47.47,1.29.47,1.77,0l5.61-5.61,1.06,1.06-5.61,5.61c-.52.52-1.21.81-1.94.81Z"/>
    <path class="cls-1" d="M32.92,41.68l-1.06-1.06,15.26-15.26c.49-.49.49-1.28,0-1.77l-15.26-15.26,1.06-1.06,15.26,15.26c1.07,1.07,1.07,2.82,0,3.89l-15.26,15.26Z"/>
    <path class="cls-1" d="M16.06,41.68L.8,26.42c-1.07-1.07-1.07-2.82,0-3.89l15.26-15.26,1.06,1.06L1.86,23.6c-.49.49-.49,1.28,0,1.77l15.26,15.26-1.06,1.06Z"/>
  </g>
  <g id="Events">
    <path class="cls-2" d="M24.89,33.53c-4.96,0-9-4.05-9-9.04s4.04-9.04,9-9.04h1.25l-.91.86c-1.46,1.39-2.3,3.32-2.3,5.31,0,4.57,4.21,8.16,8.95,7.03l1.21-.29-.68,1.05c-1.67,2.58-4.48,4.11-7.53,4.11ZM23.68,16.55c-3.84.59-6.79,3.93-6.79,7.95,0,4.43,3.59,8.04,8,8.04,2.3,0,4.46-.99,5.96-2.69-4.85.42-8.92-3.43-8.92-8.21,0-1.83.63-3.63,1.75-5.08Z"/>
  </g>
</svg>