<?xml version="1.0" encoding="UTF-8"?>
<svg xmlns="http://www.w3.org/2000/svg" viewBox="0 0 48.99 48.99">
  <defs>
    <style>
      .cls-1 {
        fill: #2220c1;
      }

      .cls-1, .cls-2 {
        stroke-width: 0px;
      }

      .cls-2 {
        fill: #fff;
      }
    </style>
  </defs>
  <g id="Bg_blue" data-name="Bg blue">
    <rect class="cls-1" x="9.44" y="9.44" width="30.11" height="30.11" rx="2" ry="2" transform="translate(-10.15 24.49) rotate(-45)"/>
  </g>
  <g id="Border">
    <path class="cls-1" d="M18,7.46l-1.06-1.06L22.55.79c1.04-1.04,2.85-1.04,3.89,0l5.61,5.61-1.06,1.06-5.61-5.61c-.47-.47-1.29-.47-1.77,0l-5.61,5.61Z"/>
    <path class="cls-1" d="M24.49,48.97c-.73,0-1.42-.29-1.94-.81l-5.61-5.61,1.06-1.06,5.61,5.61c.47.47,1.29.47,1.77,0l5.61-5.61,1.06,1.06-5.61,5.61c-.52.52-1.21.81-1.94.81Z"/>
    <path class="cls-1" d="M32.92,41.68l-1.06-1.06,15.26-15.26c.49-.49.49-1.28,0-1.77l-15.26-15.26,1.06-1.06,15.26,15.26c1.07,1.07,1.07,2.82,0,3.89l-15.26,15.26Z"/>
    <path class="cls-1" d="M16.06,41.68L.8,26.42c-1.07-1.07-1.07-2.82,0-3.89l15.26-15.26,1.06,1.06L1.86,23.6c-.49.49-.49,1.28,0,1.77l15.26,15.26-1.06,1.06Z"/>
  </g>
  <g id="Wellness">
    <path class="cls-2" d="M22.91,32.4c-1.95,0-3.89-.33-5.53-1.83-1.54-1.41-2.34-3.16-2.38-5.2,0-.53,0-1.06,0-1.6v-1.33s1.19-.02,1.19-.02c1.38-.03,2.81-.06,4.19.45.04-.43.12-.85.24-1.26.31-1.1.9-2.09,1.74-2.95.37-.38.75-.75,1.14-1.14l.94-.93.88.85c1.2,1.15,2.44,2.33,2.94,4.11l.03.12c.11.43.19.85.24,1.26.78-.3,1.61-.46,2.5-.48.54,0,1.06,0,1.61,0h1.34s.02,1.19.02,1.19c.04,1.67.07,3.39-.84,5.01-.92,1.63-2.2,2.74-3.82,3.28-.81.28-1.67.38-2.32.44-.59.05-1.19.04-1.77.03-.24,0-.48,0-.72,0h-.47c-.38.01-.76.03-1.14.03ZM16,23.43v.35c0,.54,0,1.06,0,1.58.04,1.75.73,3.26,2.06,4.48,1.68,1.54,3.76,1.65,5.93,1.54,0-.04,0-.07,0-.11-.02-.56-.03-1.12,0-1.67,0-.05,0-.09,0-.14-.06-.59-.15-1.37-.39-2.08-.48-1.38-1.4-2.44-2.84-3.25-1.4-.77-2.92-.74-4.53-.71h-.21ZM24.99,31.38c.09,0,.17,0,.26,0,.58.01,1.13.02,1.66-.03.6-.06,1.38-.15,2.09-.4,1.37-.46,2.47-1.41,3.27-2.82.77-1.38.74-2.89.71-4.5v-.21s-.36,0-.36,0c-.54,0-1.06,0-1.59,0-1.79.04-3.26.71-4.5,2.05-1.11,1.2-1.48,2.6-1.56,4.09.03.51.02,1.02,0,1.52,0,.06,0,.11,0,.17,0,.04,0,.08,0,.12ZM27.29,21.81c-.42-1.51-1.51-2.55-2.67-3.66l-.18-.17-.24.24c-.38.38-.76.75-1.12,1.13-.74.76-1.23,1.58-1.5,2.53-.13.47-.21.95-.23,1.45,1.53.89,2.59,2.1,3.14,3.62.28-.75.7-1.47,1.32-2.14.54-.58,1.12-1.05,1.75-1.42-.02-.47-.1-.97-.24-1.47"/>
  </g>
</svg>