<svg xmlns="http://www.w3.org/2000/svg" fill="#000000" data-name="Layer 1" viewBox="0 0 20.17 14.02"><path d="M13.16 14.02c-.4 0-.78-.16-1.06-.44l-1.27-1.27.71-.71 1.27 1.27c.2.2.51.2.71 0l1.27-1.27.71.71-1.27 1.27c-.28.28-.66.44-1.06.44Zm-6.15 0c-.4 0-.78-.16-1.06-.44l-1.27-1.27.71-.71 1.27 1.27c.2.2.51.2.71 0l1.27-1.27.71.71-1.27 1.27c-.28.28-.66.44-1.06.44Zm8.73-1.96-.71-.71 3.99-3.99c.19-.19.19-.51 0-.71l-3.99-3.99.71-.71 3.99 3.99c.58.58.58 1.54 0 2.12l-3.99 3.99Zm-6.15 0-.71-.71 3.99-3.99c.2-.19.2-.51 0-.71L8.88 2.66l.71-.71 3.99 3.99c.58.58.58 1.54 0 2.12l-3.99 3.99Zm-5.16 0L.44 8.07c-.58-.58-.58-1.54 0-2.12l3.99-3.99.71.71-3.99 3.99c-.19.19-.19.51 0 .71l3.99 3.99-.71.71Zm10.35-9.64-1.27-1.27c-.2-.2-.51-.2-.71 0l-1.27 1.27-.71-.71L12.09.44c.58-.58 1.54-.58 2.12 0l1.27 1.27-.71.71Zm-6.15 0L7.36 1.15c-.2-.2-.51-.2-.71 0L5.38 2.42l-.71-.71L5.94.44c.58-.58 1.54-.58 2.12 0l1.27 1.27-.71.71Z" style="stroke-width:0"/></svg>