<?xml version="1.0" encoding="UTF-8"?>
<svg id="Layer_1" data-name="Layer 1" xmlns="http://www.w3.org/2000/svg" viewBox="0 0 13.25 19.64">
  <defs>
    <style>
      .cls-1 {
        fill: #FFFFFF;
        stroke-width: 0px;
      }
    </style>
  </defs>
  <path class="cls-1" d="M6.62,19.64c-3.65,0-6.62-4.41-6.62-9.82S2.97,0,6.62,0s6.62,4.41,6.62,9.82-2.97,9.82-6.62,9.82ZM6.62,1C3.52,1,1,4.96,1,9.82c0,4.6,2.26,8.39,5.12,8.79v-2.99l-4-4,.71-.71,3.29,3.29v-3.07l-3.23-3.22.71-.71,2.52,2.52v-5.27h1v2.48l2.02-2.02.71.71-2.72,2.72v3.64l2.78-2.78.71.71-3.49,3.49v5.21c2.87-.4,5.12-4.19,5.12-8.79C12.25,4.96,9.73,1,6.62,1Z"/>
</svg>