<?xml version="1.0" encoding="UTF-8"?>
<svg id="Layer_1" data-name="Layer 1" xmlns="http://www.w3.org/2000/svg" viewBox="0 0 12 17.35">
  <defs>
    <style>
      .cls-1 {
        fill: #FFFFFF;
        stroke-width: 0px;
      }
    </style>
  </defs>
  <path class="cls-1" d="M6.02,17.35l-.41-.55c-.23-.3-5.6-7.41-5.6-10.63C0,2.77,2.69,0,6,0s6,2.77,6,6.17c.03,2.5-5.02,9.79-5.59,10.62l-.39.56ZM6,1C3.24,1,1,3.32,1,6.17c0,2.2,3.28,7.15,4.98,9.47,1.7-2.5,5.03-7.76,5.02-9.47,0-2.86-2.24-5.18-5-5.18Z"/>
  <path class="cls-1" d="M6,9c-1.65,0-3-1.35-3-3s1.35-3,3-3,3,1.35,3,3-1.35,3-3,3ZM6,4c-1.1,0-2,.9-2,2s.9,2,2,2,2-.9,2-2-.92-2-2-2Z"/>
</svg>