<?xml version="1.0" encoding="UTF-8"?>
<svg id="Layer_1" data-name="Layer 1" xmlns="http://www.w3.org/2000/svg" viewBox="0 0 17.92 18">
  <defs>
    <style>
      .cls-1 {
        fill: #FFFFFF;
        stroke-width: 0px;
      }
    </style>
  </defs>
  <path class="cls-1" d="M17.92,18H0L.72,6.35h4.34v-2.44h1v2.44h5.81v-2.44h1v2.44h4.33l.72,11.65ZM1.06,17h15.79l-.6-9.65h-3.39v4.03h-1v-4.03h-5.81v4.03h-1v-4.03H1.66l-.6,9.65ZM12.86,3.9h-1c0-.76-.31-1.51-.85-2.05-1.09-1.09-3.02-1.09-4.11,0-.55.55-.85,1.28-.85,2.05h-1c0-1.04.41-2.02,1.14-2.76.74-.74,1.72-1.14,2.76-1.14s2.03.42,2.76,1.14c.74.74,1.14,1.72,1.14,2.76Z"/>
</svg>